<mxfile host="app.diagrams.net" modified="2021-03-07T06:34:03.734Z" agent="5.0 (Windows NT 10.0; Win64; x64) AppleWebKit/537.36 (KHTML, like Gecko) Chrome/88.0.4324.150 Safari/537.36" etag="jRwAZ2Ihh1KnzzgcHITn" version="14.4.3" type="github">
  <diagram id="zyVBYemsRSUvRlwHE6LH" name="第 1 页">
    <mxGraphModel dx="865" dy="457" grid="0" gridSize="10" guides="1" tooltips="1" connect="1" arrows="1" fold="1" page="1" pageScale="1" pageWidth="827" pageHeight="1169" math="0" shadow="0">
      <root>
        <mxCell id="0" />
        <mxCell id="1" parent="0" />
        <mxCell id="td8G5Ix2BgdqpLsVRNFf-1" value="categoryList.html" style="rounded=1;whiteSpace=wrap;html=1;" vertex="1" parent="1">
          <mxGeometry x="90" y="230" width="110" height="40" as="geometry" />
        </mxCell>
        <mxCell id="td8G5Ix2BgdqpLsVRNFf-3" value="CategoryController" style="rounded=1;whiteSpace=wrap;html=1;" vertex="1" parent="1">
          <mxGeometry x="250" y="230" width="110" height="40" as="geometry" />
        </mxCell>
        <mxCell id="td8G5Ix2BgdqpLsVRNFf-4" value="CategoryService" style="rounded=1;whiteSpace=wrap;html=1;" vertex="1" parent="1">
          <mxGeometry x="410" y="230" width="110" height="40" as="geometry" />
        </mxCell>
        <mxCell id="td8G5Ix2BgdqpLsVRNFf-5" value="CategoryDAO" style="rounded=1;whiteSpace=wrap;html=1;" vertex="1" parent="1">
          <mxGeometry x="570" y="230" width="110" height="40" as="geometry" />
        </mxCell>
        <mxCell id="td8G5Ix2BgdqpLsVRNFf-6" value="" style="endArrow=classic;html=1;exitX=1;exitY=0.5;exitDx=0;exitDy=0;entryX=0;entryY=0.5;entryDx=0;entryDy=0;" edge="1" parent="1" source="td8G5Ix2BgdqpLsVRNFf-1" target="td8G5Ix2BgdqpLsVRNFf-3">
          <mxGeometry width="50" height="50" relative="1" as="geometry">
            <mxPoint x="190" y="340" as="sourcePoint" />
            <mxPoint x="240" y="290" as="targetPoint" />
          </mxGeometry>
        </mxCell>
        <mxCell id="td8G5Ix2BgdqpLsVRNFf-7" value="" style="endArrow=classic;html=1;exitX=1;exitY=0.5;exitDx=0;exitDy=0;entryX=0;entryY=0.5;entryDx=0;entryDy=0;" edge="1" parent="1">
          <mxGeometry width="50" height="50" relative="1" as="geometry">
            <mxPoint x="360" y="249.58" as="sourcePoint" />
            <mxPoint x="410" y="249.58" as="targetPoint" />
          </mxGeometry>
        </mxCell>
        <mxCell id="td8G5Ix2BgdqpLsVRNFf-8" value="" style="endArrow=classic;html=1;exitX=1;exitY=0.5;exitDx=0;exitDy=0;entryX=0;entryY=0.5;entryDx=0;entryDy=0;" edge="1" parent="1">
          <mxGeometry width="50" height="50" relative="1" as="geometry">
            <mxPoint x="520" y="249.58000000000004" as="sourcePoint" />
            <mxPoint x="570" y="249.58000000000004" as="targetPoint" />
          </mxGeometry>
        </mxCell>
      </root>
    </mxGraphModel>
  </diagram>
</mxfile>
